<?xml version="1.0" encoding="UTF-8"?>
<svg width="400" height="300" viewBox="0 0 400 300" xmlns="http://www.w3.org/2000/svg"
     style="background:transparent;">
  <!-- Tree silhouette (drawn with a single path) -->
  <path d="M200 80
    C170 80 145 90 130 110
    C115 130 110 155 110 180
    C110 200 115 220 130 240
    C145 260 170 270 200 270
    C230 270 255 260 270 240
    C285 220 290 200 290 180
    C290 155 285 130 270 110
    C255 90 230 80 200 80
    Z
    M200 50
    C160 50 125 65 105 90
    C85 115 80 145 80 180
    C80 215 85 245 105 270
    C125 295 160 310 200 310
    C240 310 275 295 295 270
    C315 245 320 215 320 180
    C320 145 315 115 295 90
    C275 65 240 50 200 50
    Z" fill="#6B0F1A" />
  <!-- Trunk -->
  <rect x="195" y="270" width="10" height="30" fill="#6B0F1A"/>
  <!-- Ground line -->
  <line x1="80" y1="300" x2="320" y2="300" stroke="#6B0F1A" stroke-width="2"/>
  <!-- Text -->
  <text x="200" y="340" font-family="Arial, Helvetica, sans-serif"
        font-size="28" font-weight="bold" fill="#000"
        text-anchor="middle">ASHGATE LIMITED</text>
</svg>
